<?xml version="1.0" encoding="utf-8"?>
<!-- Generator: Adobe Illustrator 21.0.2, SVG Export Plug-In . SVG Version: 6.00 Build 0)  -->
<svg version="1.1" id="Calque_1" xmlns="http://www.w3.org/2000/svg" xmlns:xlink="http://www.w3.org/1999/xlink" x="0px" y="0px"
	 viewBox="0 0 112.9 118.6" style="enable-background:new 0 0 112.9 118.6;" xml:space="preserve">
<style type="text/css">
	.st0{fill:#D11837;}
</style>
<path class="st0" d="M37.8,86c-4.4-6-14.5-10.7-16.2-17.9c-1.7-7.2-4.4-24.7-1-31.3c1.4-2.7,3.3-5.2,5.4-7.4
	c8.7-9.6,21-16.4,33.9-16.6s26.2,7.1,31.3,19.1c3,7,3.1,14.9,2.2,22.4c-0.4,3.5-1,6.9-2.1,10.2c-3,8.7-9.5,15.5-15.9,22.1
	c-3.7,3.8-7.3,7.6-11,11.4c-1.6,1.7-4.3,3.4-4.5,7c-0.2,3.4-11.4-6.7-12.5-10C45.5,89.6,43.7,94.1,37.8,86z"/>
</svg>
