<?xml version="1.0" encoding="utf-8"?>
<!-- Generator: Adobe Illustrator 21.0.2, SVG Export Plug-In . SVG Version: 6.00 Build 0)  -->
<svg version="1.1" id="Calque_1" xmlns="http://www.w3.org/2000/svg" xmlns:xlink="http://www.w3.org/1999/xlink" x="0px" y="0px"
	 viewBox="0 0 112.9 118.6" style="enable-background:new 0 0 112.9 118.6;" xml:space="preserve">
<style type="text/css">
	.st0{fill:#E6204B;}
</style>
<path class="st0" d="M34.2,76.5c-4.4-6-13.4-8.3-15.1-15.5c-1.7-7.2-1.2-15.1,2.2-21.6c1.4-2.7,3.3-5.2,5.4-7.4
	c5.9-6.5,8.8-9.1,17.2-11.9c1.4-0.5,8.9-5.6,10.4-5.9c2.6-0.6,5.9,1.2,8.5,1.2c13-0.2,24.1,7.1,29.2,19c3,7,3.1,14.9,2.2,22.4
	c-0.4,3.5-4.8,6.9-5.9,10.2c-3,8.7-5.7,15.6-12.1,22.2c-3.7,3.8-7.3,7.6-11,11.4c-1.6,1.7-3.2,4-5.6,4c-1.8,0-3.9-3.5-5.8-6.3
	C44.9,85.6,40.1,84.5,34.2,76.5z"/>
</svg>
