<?xml version="1.0" encoding="utf-8"?>
<!-- Generator: Adobe Illustrator 21.0.2, SVG Export Plug-In . SVG Version: 6.00 Build 0)  -->
<svg version="1.1" id="Calque_1" xmlns="http://www.w3.org/2000/svg" xmlns:xlink="http://www.w3.org/1999/xlink" x="0px" y="0px"
	 viewBox="0 0 112.9 118.6" style="enable-background:new 0 0 112.9 118.6;" xml:space="preserve">
<style type="text/css">
	.st0{fill:#E6212F;}
</style>
<path class="st0" d="M33.6,82.8c-4.4-6-9.8-23.4-11.5-30.6c-1.7-7.2-5-10.1-1.6-16.7c1.4-2.7,3.3-5.2,5.4-7.4
	c8.7-9.6,17.3-10.4,30.2-10.5S86.2,25,91.3,37c3,7,2.8,8.5,2,16c-0.4,3.5-1,6.9-2.1,10.2c-3,8.7-4.3,15.3-10.6,21.9
	c-3.7,3.8-7.3,7.6-11,11.4c-1.6,1.7-8.6,3.6-10.8,4.2c-3.3,0.9-6.7-1-9.5-3C41,92.1,39.4,90.9,33.6,82.8z"/>
</svg>
