<?xml version="1.0" encoding="utf-8"?>
<!-- Generator: Adobe Illustrator 21.0.2, SVG Export Plug-In . SVG Version: 6.00 Build 0)  -->
<svg version="1.1" id="Calque_1" xmlns="http://www.w3.org/2000/svg" xmlns:xlink="http://www.w3.org/1999/xlink" x="0px" y="0px"
	 viewBox="0 0 112.9 118.6" style="enable-background:new 0 0 112.9 118.6;" xml:space="preserve">
<style type="text/css">
	.st0{fill:#B2222A;}
</style>
<path class="st0" d="M28.9,80.1c-4.4-6-8-12.6-9.7-19.8C17.5,53,18,45.2,21.4,38.6c1.4-2.7,3.3-5.2,5.4-7.4
	c8.7-9.6,21-16.4,33.9-16.6S86.8,15,91.9,26.9c3,7,3.2,21.6,2.3,29.2c-0.4,3.5-1,6.9-2.1,10.2c-3,8.7-9.5,15.5-15.9,22.1
	c-3.7,3.8-7.3,7.6-11,11.4c-1.6,1.7-3.3,3.4-5.6,4c-3.3,0.9-6.7-1-9.5-3C41.9,95.2,34.7,88.1,28.9,80.1z"/>
</svg>
